<svg width="38" height="61" viewBox="0 0 38 61" fill="none" xmlns="http://www.w3.org/2000/svg">
<path d="M30.03 41.8394C30.2401 42.049 30.3452 42.1538 30.4731 42.2814C30.9389 42.2814 31.4276 42.3178 31.9163 42.2768C33.862 42.1082 35.7438 42.7872 38 42.532C37.3012 43.0651 36.9176 43.5527 36.4334 43.6939C34.6111 44.2316 33.2043 45.4528 31.624 46.396C29.3998 47.7311 27.55 49.4717 25.8601 51.3719C24.4808 52.912 23.2841 54.6162 22.0784 56.3021C21.3019 57.3912 20.6534 58.5668 19.9683 59.7105C19.9043 59.8198 19.9637 60.0021 19.9637 59.911C19.6349 60.3621 19.4065 60.6719 19.1644 61C18.9589 60.8679 18.8173 60.8177 18.7397 60.7129C18.1688 59.9839 17.7988 59.1227 17.3421 58.3298C16.2688 56.4616 14.9762 54.762 13.7248 53.0259C12.4276 51.226 10.788 49.7543 9.17572 48.2825C7.52692 46.7833 5.67716 45.4893 3.65841 44.4868C3.45288 44.382 3.21082 44.3228 3.05553 44.1633C2.44808 43.5527 1.64423 43.2884 0.904326 42.9148C0.630288 42.7781 0.365384 42.6277 -8.11643e-07 42.4318C2.42981 41.7665 4.76827 42.0353 7.08389 41.9761C7.21178 41.7346 7.3351 41.4885 7.55433 41.0602L7.55433 28.7938L7.96538 28.3837L20.9365 28.3837C23.7272 28.9943 26.568 28.4976 29.3404 28.7163C29.482 28.8576 29.587 28.9624 29.6875 29.0672C29.925 29.8874 29.4454 30.8078 30.0392 31.5779C29.82 32.0928 29.5139 32.5849 29.9204 33.1636C29.9935 33.2684 29.8565 33.5053 29.8702 33.6739C29.8976 33.8972 30.0483 34.125 30.0209 34.3346C29.9935 34.5442 29.8108 34.7311 29.7103 34.9042C29.8428 35.1047 29.9478 35.2596 30.0483 35.4054C29.4774 36.3669 29.6053 37.465 29.8108 38.3855C30.0209 39.3059 29.9524 40.1899 30.0346 41.0876C30.0575 41.3336 30.0346 41.5842 30.0346 41.8257L30.03 41.8394ZM7.53606 26.5018L7.53606 21.002C11.2447 21.002 14.9305 20.9564 18.6118 21.0111C22.2702 21.0658 25.9377 20.7058 29.724 21.3938C29.7332 23.1345 29.724 24.9753 29.7286 26.9119L28.2351 26.9119C21.9276 26.9119 15.6156 26.9119 9.30817 26.9165C8.68245 26.9165 8.075 26.9165 7.53606 26.4973L7.53606 26.5018ZM25.7825 20.118L25.7825 20.4142L25.682 20.4142L25.682 20.118L25.7825 20.118ZM15.063 18.2999C14.3779 17.7941 13.574 18.104 12.8204 18.0584C11.9846 18.0037 11.1442 18.0447 10.3038 18.0447L7.94711 18.0447L7.50865 17.6073L7.50865 14.6181C7.6274 14.5179 7.77812 14.3949 8.00649 14.1989C9.13005 14.1989 10.3632 14.2217 11.5873 14.1898C12.2952 14.1716 12.9894 14.2946 13.7065 13.9438C14.145 13.7296 14.8849 13.7114 15.2913 13.9483C15.8714 14.2901 16.4195 14.1807 16.9721 14.1853C19.8358 14.2126 22.6995 14.167 25.5587 14.2126C26.9014 14.2308 28.2762 13.9027 29.7286 14.7275C29.7286 15.1102 29.6418 15.7482 29.756 16.3497C29.8656 16.9329 29.8382 17.4524 29.6464 17.9718C29.1714 18.0493 28.7101 18.1495 28.2442 18.1905C27.8514 18.227 27.4861 18.1039 27.0476 18.2953C26.5909 18.4913 25.9834 18.3409 25.4399 18.3409L23.9601 18.3409C23.4668 18.3409 22.969 18.3682 22.4803 18.3318C21.9688 18.2953 21.48 18.4229 20.9411 18.0948C20.5757 17.8716 19.918 18.1131 19.3928 18.1677C19.2147 18.186 18.968 18.3819 18.8858 18.3227C18.3606 17.9399 17.8308 18.4958 17.2416 18.2088C16.5839 17.8852 15.7618 17.8397 15.063 18.2953L15.063 18.2999ZM29.2856 7.405C29.45 7.56904 29.587 7.70574 29.7286 7.84244L29.7286 9.6742C29.2171 9.80179 28.6507 10.1116 28.1529 10.0296C24.8005 9.47371 21.4344 9.86102 18.0728 9.779C14.6839 9.69698 11.2904 9.73344 7.78726 9.71521C7.66851 9.10462 7.54519 8.47581 7.44014 7.94724C7.77356 7.59182 8.01105 7.34121 8.23485 7.10882L16.5337 7.10882C17.1776 7.10882 17.8171 7.06325 18.4565 7.12249C19.0091 7.17261 19.6394 6.83998 20.1053 7.39589C20.6625 6.99035 21.206 7.53259 21.7861 7.42778C22.4072 7.31387 23.0603 7.40045 23.7043 7.40045L29.2856 7.40045L29.2856 7.405ZM29.6601 0.392363C30.2447 0.87992 30.126 1.3128 29.6053 1.7639L8.21658 1.7639C8.04759 1.55886 7.80096 1.26723 7.50408 0.911815C7.62283 0.66576 7.78726 0.342235 7.94255 0.0187146L21.8637 0.0187139C23.1928 0.0187139 24.531 -0.0314075 25.8601 0.0323856C27.1024 0.0870655 28.3401 0.264773 29.6601 0.396914L29.6601 0.392363Z" fill="white"/>
</svg>
