<svg width="757" height="192" viewBox="0 0 757 192" fill="none" xmlns="http://www.w3.org/2000/svg">
<path d="M29.405 72H38.1723V24.1784H47.3381V16.2082H20.2392V24.1784H29.405V72ZM53.974 72H62.7412V46.8937H72.1461V72H80.9134V16.2082H72.1461V38.9234H62.7412V16.2082H53.974V72ZM89.8339 72H113.745V64.0297H98.6012V46.8937H110.636V38.9234H98.6012V24.1784H113.745V16.2082H89.8339V72ZM147.733 72.797C156.341 72.797 160.963 67.6961 160.963 58.61C160.963 51.6758 158.652 47.2125 151.319 40.7566C145.581 35.7353 143.748 32.7863 143.748 28.7215C143.748 24.8958 145.342 23.3814 148.131 23.3814C150.921 23.3814 152.515 24.8958 152.515 28.8809V31.7502H160.804V29.4388C160.804 20.5121 156.58 15.4112 148.052 15.4112C139.523 15.4112 134.98 20.5121 134.98 29.2794C134.98 35.6556 137.372 40.1987 144.704 46.6546C150.443 51.6758 152.196 54.6248 152.196 59.2476C152.196 63.3921 150.443 64.8268 147.653 64.8268C144.864 64.8268 143.11 63.3921 143.11 59.407V55.5813H134.821V58.7694C134.821 67.6961 139.125 72.797 147.733 72.797ZM175.236 72H184.003V24.1784H193.169V16.2082H166.07V24.1784H175.236V72ZM193.835 72H201.965L203.559 61.0807H213.522V60.9213L215.116 72H223.883L214.797 16.2082H202.921L193.835 72ZM204.595 53.509L208.421 25.9319H208.58L212.486 53.509H204.595ZM230.528 72H239.295V48.0892H242.324C246.309 48.0892 247.823 49.763 247.823 54.9436V65.1456C247.823 69.6886 248.142 70.5654 248.62 72H257.547C256.67 69.9277 256.59 67.9352 256.59 65.2253V55.4219C256.59 49.1254 255.156 44.9808 250.772 43.6259V43.4665C254.678 41.8724 256.511 38.2061 256.511 32.4675V29.0403C256.511 20.4324 252.605 16.2082 243.519 16.2082H230.528V72ZM239.295 40.119V24.1784H243.28C246.388 24.1784 247.743 25.9319 247.743 29.917V34.221C247.743 38.6843 245.751 40.119 242.483 40.119H239.295ZM271.763 72H280.53V24.1784H289.696V16.2082H262.597V24.1784H271.763V72ZM324.161 72.797C332.769 72.797 337.471 67.6961 337.471 58.7694V29.4388C337.471 20.5121 332.769 15.4112 324.161 15.4112C315.553 15.4112 310.85 20.5121 310.85 29.4388V58.7694C310.85 67.6961 315.553 72.797 324.161 72.797ZM324.161 64.8268C321.371 64.8268 319.618 63.3124 319.618 59.3273V28.8809C319.618 24.8958 321.371 23.3814 324.161 23.3814C326.95 23.3814 328.704 24.8958 328.704 28.8809V59.3273C328.704 63.3124 326.95 64.8268 324.161 64.8268ZM345.791 72H354.559V47.6907H365.876V39.7204H354.559V24.1784H368.985V16.2082H345.791V72ZM397.591 72H406.358V24.1784H415.524V16.2082H388.425V24.1784H397.591V72ZM422.159 72H430.927V46.8937H440.332V72H449.099V16.2082H440.332V38.9234H430.927V16.2082H422.159V72ZM458.019 72H481.93V64.0297H466.787V46.8937H478.822V38.9234H466.787V24.1784H481.93V16.2082H458.019V72ZM504.521 72H512.332V31.272H512.491L523.012 72H532.018V16.2082H524.207V49.6036H524.048L515.52 16.2082H504.521V72ZM538.614 72H546.744L548.338 61.0807H558.301V60.9213L559.895 72H568.662L559.576 16.2082H547.7L538.614 72ZM549.374 53.509L553.2 25.9319H553.359L557.265 53.509H549.374ZM572.475 48.0892H590.009V40.119H572.475V48.0892ZM609.977 72.797C618.426 72.797 622.889 67.6961 622.889 59.0882V51.1976H614.6V59.7258C614.6 63.3921 612.847 64.8268 610.217 64.8268C607.586 64.8268 605.833 63.3921 605.833 59.7258V28.5621C605.833 24.8958 607.586 23.3814 610.217 23.3814C612.847 23.3814 614.6 24.8958 614.6 28.5621V35.018H622.889V29.12C622.889 20.5121 618.426 15.4112 609.977 15.4112C601.529 15.4112 597.066 20.5121 597.066 29.12V59.0882C597.066 67.6961 601.529 72.797 609.977 72.797ZM630.526 72H639.293V48.0892H642.322C646.307 48.0892 647.821 49.763 647.821 54.9436V65.1456C647.821 69.6886 648.14 70.5654 648.618 72H657.545C656.668 69.9277 656.588 67.9352 656.588 65.2253V55.4219C656.588 49.1254 655.154 44.9808 650.77 43.6259V43.4665C654.676 41.8724 656.509 38.2061 656.509 32.4675V29.0403C656.509 20.4324 652.603 16.2082 643.517 16.2082H630.526V72ZM639.293 40.119V24.1784H643.278C646.387 24.1784 647.742 25.9319 647.742 29.917V34.221C647.742 38.6843 645.749 40.119 642.481 40.119H639.293ZM662.751 72H670.881L672.475 61.0807H682.438V60.9213L684.032 72H692.799L683.713 16.2082H671.837L662.751 72ZM673.511 53.509L677.337 25.9319H677.496L681.402 53.509H673.511ZM699.444 72H708.211V47.6907H719.529V39.7204H708.211V24.1784H722.637V16.2082H699.444V72ZM736.865 72H745.632V24.1784H754.798V16.2082H727.699V24.1784H736.865V72ZM22.5506 168H36.3391C45.1064 168 49.6495 163.377 49.6495 154.769V149.987C49.6495 144.089 47.8163 139.945 43.1139 138.351V138.191C47.0193 136.597 48.7727 133.011 48.7727 127.272V125.04C48.7727 116.432 44.8673 112.208 35.7812 112.208H22.5506V168ZM31.3179 134.923V120.178H35.5421C38.6505 120.178 40.0055 121.932 40.0055 125.917V129.025C40.0055 133.489 38.0129 134.923 34.7451 134.923H31.3179ZM31.3179 160.03V142.894H35.2233C39.2084 142.894 40.8822 144.488 40.8822 149.668V154.53C40.8822 158.675 39.2881 160.03 36.3391 160.03H31.3179ZM57.1652 168H81.076V160.03H65.9325V142.894H77.9676V134.923H65.9325V120.178H81.076V112.208H57.1652V168ZM88.5107 168H112.421V160.03H97.278V142.894H109.313V134.923H97.278V120.178H112.421V112.208H88.5107V168ZM119.856 168H128.624V144.089H131.652C135.637 144.089 137.152 145.763 137.152 150.944V161.146C137.152 165.689 137.471 166.565 137.949 168H146.875C145.999 165.928 145.919 163.935 145.919 161.225V151.422C145.919 145.125 144.484 140.981 140.101 139.626V139.466C144.006 137.872 145.839 134.206 145.839 128.468V125.04C145.839 116.432 141.934 112.208 132.848 112.208H119.856V168ZM128.624 136.119V120.178H132.609C135.717 120.178 137.072 121.932 137.072 125.917V130.221C137.072 134.684 135.079 136.119 131.812 136.119H128.624ZM169.549 168H178.316V144.089H181.345C185.33 144.089 186.844 145.763 186.844 150.944V161.146C186.844 165.689 187.163 166.565 187.641 168H196.568C195.691 165.928 195.612 163.935 195.612 161.225V151.422C195.612 145.125 194.177 140.981 189.793 139.626V139.466C193.699 137.872 195.532 134.206 195.532 128.468V125.04C195.532 116.432 191.627 112.208 182.54 112.208H169.549V168ZM178.316 136.119V120.178H182.301C185.41 120.178 186.765 121.932 186.765 125.917V130.221C186.765 134.684 184.772 136.119 181.504 136.119H178.316ZM204.086 168H227.996V160.03H212.853V142.894H224.888V134.923H212.853V120.178H227.996V112.208H204.086V168ZM241.568 168H253.205L261.653 112.208H253.603L247.865 155.487H247.705L241.967 112.208H233.12L241.568 168ZM280.773 168.797C289.381 168.797 294.083 163.696 294.083 154.769V125.439C294.083 116.512 289.381 111.411 280.773 111.411C272.165 111.411 267.462 116.512 267.462 125.439V154.769C267.462 163.696 272.165 168.797 280.773 168.797ZM280.773 160.827C277.983 160.827 276.23 159.312 276.23 155.327V124.881C276.23 120.896 277.983 119.381 280.773 119.381C283.562 119.381 285.316 120.896 285.316 124.881V155.327C285.316 159.312 283.562 160.827 280.773 160.827ZM302.403 168H325.597V160.03H311.17V112.208H302.403V168ZM344.944 168.797C353.552 168.797 358.016 163.696 358.016 154.769V112.208H349.567V155.407C349.567 159.392 347.893 160.827 345.104 160.827C342.314 160.827 340.641 159.392 340.641 155.407V112.208H331.873V154.769C331.873 163.696 336.337 168.797 344.944 168.797ZM373.505 168H382.273V120.178H391.438V112.208H364.34V120.178H373.505V168ZM398.074 168H406.842V112.208H398.074V168ZM428.472 168.797C437.079 168.797 441.782 163.696 441.782 154.769V125.439C441.782 116.512 437.079 111.411 428.472 111.411C419.864 111.411 415.161 116.512 415.161 125.439V154.769C415.161 163.696 419.864 168.797 428.472 168.797ZM428.472 160.827C425.682 160.827 423.929 159.312 423.929 155.327V124.881C423.929 120.896 425.682 119.381 428.472 119.381C431.261 119.381 433.015 120.896 433.015 124.881V155.327C433.015 159.312 431.261 160.827 428.472 160.827ZM450.102 168H457.913V127.272H458.072L468.593 168H477.599V112.208H469.789V145.604H469.629L461.101 112.208H450.102V168Z" fill="white"/>
<g clip-path="url(#clip0_7_567)">
<path d="M574.677 154.291C566.176 154.291 557.676 154.394 549.176 154.265C548.655 154.265 548.115 154.252 547.594 154.252C539.687 154.226 531.78 154.848 523.926 153.707C523.926 153.707 523.926 153.72 523.926 153.733C523.801 153.902 523.657 154.083 523.531 154.252C523.477 154.187 523.405 154.122 523.351 154.057C523.513 153.915 523.657 153.759 523.819 153.616C523.855 153.642 523.873 153.681 523.908 153.707C531.762 154.861 539.669 154.226 547.576 154.252C539.687 154.226 531.78 154.848 523.891 153.681C524.016 153.305 524.16 152.929 524.322 152.553C523.909 152.8 523.477 153.033 522.974 153.241C522.938 153.253 522.884 153.266 522.848 153.279C522.704 153.604 522.579 153.928 522.399 154.239H508.364C508.31 154.148 508.238 154.044 508.184 153.954C507.393 154.394 506.351 154.667 505.093 154.68C500.295 154.719 495.532 155.237 490.752 154.978C489.081 154.887 487.841 154.433 486.978 153.772C471.505 153.863 448.179 153.694 443.884 153.357C443.722 153.396 443.56 153.448 443.398 153.474C443.291 153.487 443.183 153.5 443.075 153.513C443.111 153.565 443.165 153.604 443.219 153.655H441.817C441.655 153.655 441.511 153.681 441.35 153.694C440.793 153.746 440.236 153.746 439.678 153.746C439.301 153.746 438.924 153.707 438.564 153.655H424.116C418.185 153.655 412.255 153.759 406.324 153.629C400.574 153.5 394.787 154.252 389.054 153.059C387.94 152.826 386.772 153.02 385.622 153.02H382.171C380.931 153.02 379.691 153.072 378.433 153.007C377.445 152.955 376.456 154.654 375.468 153.033C374.569 154.252 373.329 153.616 372.269 153.629C365.764 153.694 359.258 153.772 352.771 153.629C346.247 153.487 339.742 153.85 333.2 153.163C327.234 152.54 321.16 152.916 315.139 153.059C309.191 153.202 303.261 152.89 297.294 153.513C291.13 154.161 284.876 153.772 278.658 153.629C272.422 153.487 266.204 153.72 259.95 153.176C252.546 152.527 245.035 153.085 237.577 153.007C230.19 152.929 222.786 153.5 215.436 152.385C212.597 151.957 209.865 153.046 207.062 153.033C200.179 153.02 193.296 153.15 186.413 152.994C179.512 152.839 172.575 153.72 165.711 152.398C154.982 152.683 144.253 152.061 133.525 152.929C126.39 153.5 119.184 153.124 112.013 153.007C104.825 152.89 97.6185 153.604 90.448 152.398H0V154.161C0.269565 154.226 0.449275 154.291 0.611014 154.291C9.79419 154.291 18.9774 154.291 28.1606 154.291C37.3437 154.291 46.3292 154.2 55.4226 154.317C64.5339 154.433 73.6272 154.057 82.7385 154.809C89.5854 155.38 96.5042 154.926 103.387 154.926C110.27 154.926 117.351 155.03 124.323 154.9C131.134 154.77 137.945 155.432 144.756 154.368C147.38 153.954 150.112 154.226 152.771 154.33C155.467 154.433 158.163 154.874 160.858 154.913C167.454 155.004 174.049 154.874 180.644 154.978C182.765 155.017 184.958 154.304 187.006 155.561C187.222 155.691 187.707 155.704 187.833 155.561C188.695 154.472 189.792 154.978 190.78 154.978C200.161 154.939 209.524 154.887 218.887 154.978C228.016 155.056 237.163 154.498 246.293 155.574C247.515 155.717 248.773 155.6 250.012 155.6H277.275C278.514 155.6 279.772 155.717 280.995 155.574C282.252 155.432 283.654 156.248 284.786 155.017C285.811 156.171 287.105 155.587 288.255 155.587C320.297 155.626 352.321 155.613 384.364 155.613H387.041C387.131 155.808 387.167 156.002 387.239 156.21C387.275 156.21 387.311 156.21 387.347 156.21C388.084 156.184 388.767 156.3 389.396 156.534C389.449 156.547 389.503 156.573 389.557 156.585C389.557 156.261 389.575 155.937 389.557 155.613C392.397 155.613 394.985 155.782 397.554 155.561C400.124 155.341 402.532 156.287 405.066 156.261C409.847 156.21 414.627 156.326 419.407 156.222C424.205 156.119 428.986 156.313 433.82 155.743C438.744 155.159 443.758 155.535 448.718 155.639C453.714 155.743 458.728 155.095 463.688 156.248H490.95C500.043 156.248 509.118 156.158 518.212 156.274C527.215 156.391 536.219 156.132 545.24 156.754C553.902 157.35 562.636 156.884 571.334 156.884H574.048C574.838 156.106 575.324 155.393 574.641 154.343L574.677 154.291Z" fill="white"/>
<path d="M477.094 151.114C477.166 151.049 477.22 150.971 477.292 150.894C477.22 150.764 477.148 150.621 477.094 150.492C477.022 150.557 476.896 150.647 476.914 150.699C476.914 150.777 476.95 150.842 476.986 150.92C477.022 150.984 477.058 151.062 477.094 151.127" fill="white"/>
<path d="M348.889 143.568L348.835 143.504C348.835 143.504 348.799 143.465 348.781 143.439C348.619 143.581 348.476 143.737 348.314 143.88C348.368 143.944 348.44 144.009 348.494 144.074C348.619 143.905 348.763 143.724 348.889 143.555V143.568Z" fill="white"/>
<path d="M349.41 142.868C349.212 143.076 349.033 143.283 348.835 143.503L349.41 142.868Z" fill="white"/>
<path d="M403.269 134.402C403.197 134.272 403.125 134.13 403.072 134C403 134.065 402.874 134.156 402.892 134.207C402.928 134.35 403 134.493 403.072 134.635C403.143 134.557 403.197 134.493 403.269 134.415V134.402Z" fill="white"/>
<path d="M48.4139 153.655C48.342 153.512 48.2701 153.383 48.2162 153.24C48.2881 153.162 48.36 153.085 48.4139 153.02C48.4498 153.085 48.4858 153.162 48.5217 153.227C48.5576 153.292 48.5756 153.37 48.5936 153.448C48.5936 153.499 48.4858 153.59 48.4139 153.655Z" fill="white"/>
<path d="M27.7472 153.655C27.7472 153.655 27.7112 153.616 27.6932 153.603C27.6393 153.551 27.5674 153.487 27.5674 153.448C27.6034 153.292 27.6753 153.162 27.7472 153.02C27.819 153.085 27.873 153.162 27.9448 153.24C27.873 153.37 27.8011 153.512 27.7472 153.655Z" fill="white"/>
<path d="M48.3953 153.02C48.3237 153.084 48.2699 153.162 48.1982 153.24C48.2699 153.162 48.3416 153.084 48.3953 153.02Z" fill="white"/>
<path d="M477.112 151.113C477.183 151.049 477.237 150.971 477.309 150.881C477.237 150.971 477.166 151.036 477.112 151.113Z" fill="white"/>
<path d="M27.9443 153.24C27.8726 153.37 27.8009 153.513 27.7471 153.655C27.8188 153.513 27.8905 153.383 27.9443 153.24Z" fill="white"/>
</g>
<defs>
<clipPath id="clip0_7_567">
<rect width="575" height="23" fill="white" transform="translate(0 134)"/>
</clipPath>
</defs>
</svg>
